<svg viewBox="0 0 120 25" xmlns="http://www.w3.org/2000/svg" fill-rule="evenodd" clip-rule="evenodd" stroke-linejoin="round" stroke-miterlimit="2"><path d="M75.5 18.1c.7.65 1.47 1.2 2.31 1.61.84.42 1.67.63 2.49.63.91 0 1.59-.19 2.04-.56.44-.38.67-.88.67-1.52 0-.33-.07-.62-.2-.86a1.97 1.97 0 0 0-.56-.64 5.11 5.11 0 0 0-.9-.53l-1.14-.55-2.53-1.18a7.33 7.33 0 0 1-2.7-2.1 5.76 5.76 0 0 1-.88-1.65 6.47 6.47 0 0 1-.33-2.13 6.2 6.2 0 0 1 1.94-4.54 6.69 6.69 0 0 1 2.19-1.36c.84-.33 1.77-.5 2.78-.5a8.47 8.47 0 0 1 6.25 2.84L84.7 8.13a8.37 8.37 0 0 0-1.9-1.27 4.93 4.93 0 0 0-2.12-.45 2.9 2.9 0 0 0-1.8.51 1.7 1.7 0 0 0-.67 1.44c0 .33.08.6.22.84.15.23.36.44.63.63.27.18.58.36.94.52l1.16.55 2.5 1.12a6.89 6.89 0 0 1 2.82 2.18 6 6 0 0 1 1.02 3.66c0 .9-.16 1.76-.49 2.56-.33.8-.8 1.5-1.43 2.11a7 7 0 0 1-2.3 1.45c-.92.37-1.95.55-3.1.55a9.92 9.92 0 0 1-7.18-3.1l2.5-3.34zM89.31 7.75h4.38v9.54c0 1.19.15 2 .45 2.44.3.44.76.66 1.4.66.55 0 1.02-.14 1.4-.42.37-.3.78-.75 1.22-1.4V7.78h4.37v16.36h-3.57l-.33-2.27h-.09a8.32 8.32 0 0 1-2.04 1.96c-.72.47-1.6.7-2.6.7-1.61 0-2.78-.57-3.5-1.74-.73-1.17-1.09-2.78-1.09-4.85V7.77zM105.38 1h4.38v5.68l-.12 2.5a6.85 6.85 0 0 1 1.86-1.33 4.9 4.9 0 0 1 4.45.12c.72.39 1.33.94 1.84 1.66.5.72.89 1.58 1.16 2.6.27 1.03.4 2.17.4 3.42 0 1.41-.17 2.66-.52 3.76a8.92 8.92 0 0 1-1.4 2.8 6.22 6.22 0 0 1-2 1.73c-.74.4-1.51.59-2.3.59a4.2 4.2 0 0 1-1.98-.53 6.16 6.16 0 0 1-1.87-1.58h-.11l-.36 1.71h-3.43V1zm4.38 18.51a3.2 3.2 0 0 0 2.35 1.06c.76 0 1.4-.38 1.94-1.14.54-.76.8-1.98.8-3.68 0-2.95-.85-4.42-2.56-4.42-.87 0-1.72.5-2.53 1.48v6.7z" fill="#0162cd"/><path d="M26 7.46h4.58l1.5 7.59c.13.81.24 1.61.35 2.4.1.8.22 1.61.34 2.45h.13l.42-2.48c.14-.81.3-1.6.49-2.37l1.72-7.6h3.98l1.76 7.6c.19.81.35 1.61.5 2.4l.47 2.45h.12c.15-.84.27-1.65.37-2.44.09-.8.21-1.6.36-2.41l1.47-7.6h4.26L45.1 23.84H39.7l-1.41-6.54c-.17-.77-.31-1.54-.44-2.3l-.4-2.48h-.13l-.4 2.47c-.1.77-.24 1.54-.39 2.31l-1.38 6.54H29.9L26 7.46zm26.86-2.41c-.78 0-1.41-.24-1.92-.71a2.4 2.4 0 0 1-.75-1.83c0-.75.25-1.35.76-1.82.5-.46 1.13-.69 1.9-.69.8 0 1.44.23 1.93.7.5.46.74 1.06.74 1.8 0 .76-.24 1.37-.74 1.84-.49.47-1.13.7-1.92.7zm-2.3 2.4h4.62v16.38h-4.61V7.46zM58.19.7h4.6v18.25c0 .5.1.86.27 1.06.18.2.36.3.55.3h.27c.07 0 .17-.03.3-.07l.56 3.6c-.25.1-.57.2-.96.28-.38.07-.84.11-1.36.11-.8 0-1.46-.13-2-.4a3.28 3.28 0 0 1-1.3-1.1 4.82 4.82 0 0 1-.71-1.71c-.15-.68-.22-1.43-.22-2.27V.7zm7.92 0h4.6v18.25c0 .5.1.86.27 1.06.18.2.36.3.55.3h.27c.07 0 .17-.03.3-.07l.56 3.6c-.25.1-.57.2-.96.28-.38.07-.84.11-1.36.11-.8 0-1.46-.13-2-.4a3.27 3.27 0 0 1-1.3-1.1 4.83 4.83 0 0 1-.71-1.71c-.15-.68-.22-1.43-.22-2.27V.7z" fill="#00ae2c"/><g fill-rule="nonzero"><path d="M21.84 16.4A5.24 5.24 0 0 1 24 20.23V21a1 1 0 0 1-1 1h-3.04a6.95 6.95 0 0 0-5.2-6.25c-.37-.1-.75-.18-1.13-.25 1.02-.29 2.17-.5 3.37-.5 2.35 0 3.72.54 4.84 1.4zM17 4c2.2 0 4 2.3 4 4.5S19.2 13 17 13c-.55 0-1.06-.11-1.54-.3.35-.84.54-2.25.54-3.2 0-1.57-.53-3.51-1.4-4.68.67-.5 1.5-.82 2.4-.82z" fill="#64aaf5"/><path d="M17 24H1a1 1 0 0 1-1-1v-.47a4.98 4.98 0 0 1 3.73-4.84C5.2 17.3 7.03 17 9 17c1.98 0 3.8.31 5.27.69A4.98 4.98 0 0 1 18 22.52V23a1 1 0 0 1-1 1zm-8-9c-2.76 0-5-2.74-5-5.5S6.24 4 9 4s5 2.74 5 5.5S11.76 15 9 15z" fill="#5bc776"/></g></svg>
